<svg width="18" height="19" viewBox="0 0 18 19" fill="none" xmlns="http://www.w3.org/2000/svg">
<path d="M9.3636 6.97659C8.58366 7.04337 7.80426 7.11969 7.05024 7.34505C5.5035 7.80837 4.71402 8.85471 4.7394 10.3995C4.76244 11.7916 5.56758 12.7152 6.9507 12.8626C7.84224 12.9574 8.69814 12.8098 9.42174 12.2175C9.62892 12.0481 9.82314 11.8627 10.0066 11.7C10.3063 12.0308 10.5878 12.3598 10.8896 12.6696C11.081 12.8658 11.2655 12.8581 11.4712 12.6819C11.8571 12.3521 12.2407 12.0195 12.6245 11.687C12.8318 11.507 12.8588 11.347 12.6727 11.1364C12.2175 10.6203 12.06 10.0276 12.0721 9.34449C12.0933 8.12734 12.0836 6.90984 12.0431 5.69319C12.0123 4.75773 11.5448 4.06131 10.6834 3.68007C9.36036 3.09507 8.01972 3.10803 6.7005 3.68925C5.80968 4.08237 5.26464 4.78293 5.0517 5.73711C4.98186 6.05067 5.06538 6.16767 5.3811 6.20547C5.83632 6.26001 6.291 6.31833 6.74568 6.37773C6.99642 6.41049 7.13592 6.33525 7.19028 6.08415C7.3521 5.33643 8.09118 4.96653 8.79192 5.07057C9.24426 5.13771 9.58158 5.42391 9.6507 5.85735C9.70686 6.20997 9.70272 6.57249 9.72504 6.92673C9.66546 6.94293 9.64296 6.95283 9.61956 6.95481C9.53424 6.96327 9.44892 6.96921 9.3636 6.97659ZM9.3303 10.5355C9.10314 10.8786 8.81208 11.1261 8.4024 11.1951C7.73856 11.3065 7.25022 10.8793 7.20144 10.1622C7.13754 9.22317 7.61706 8.57985 8.54406 8.40165C8.91792 8.32965 9.3024 8.31237 9.70002 8.26809C9.7038 9.07899 9.78516 9.84795 9.3303 10.5355Z" fill="black"/>
<path d="M13.5684 13.2606C13.5041 13.2796 13.4428 13.3077 13.3808 13.334C12.4963 13.7113 11.587 14.0086 10.6425 14.1949C9.75078 14.3712 8.85294 14.4601 7.9443 14.376C6.8274 14.2734 5.78556 13.9141 4.78944 13.4177C4.15548 13.102 3.53628 12.7567 2.90898 12.4273C2.71224 12.324 2.53188 12.3546 2.4309 12.4977C2.33118 12.6387 2.36574 12.8242 2.54178 12.9628C3.16602 13.4541 3.77388 13.9698 4.42782 14.4183C5.64696 15.2544 6.99102 15.7536 8.7444 15.7528C10.1689 15.717 11.7356 15.2829 13.1859 14.439C13.444 14.2889 13.6913 14.1177 13.9325 13.9411C14.1163 13.8065 14.1557 13.6085 14.0618 13.4391C13.9711 13.2753 13.7702 13.2008 13.5684 13.2606Z" fill="#D0721C"/>
<path d="M14.9157 11.881C14.2263 11.8114 13.5605 11.8951 12.9787 12.3208C12.8435 12.4192 12.7652 12.5524 12.839 12.7173C12.9094 12.8745 13.0532 12.8948 13.2129 12.8723C13.5149 12.8298 13.8182 12.7953 14.1212 12.7573L14.1233 12.7809C14.2335 12.7809 14.3435 12.7794 14.4533 12.7812C14.5805 12.7834 14.6484 12.8388 14.6191 12.9756C14.5868 13.1247 14.5651 13.2769 14.5201 13.4218C14.4335 13.7017 14.3215 13.9741 14.2466 14.2565C14.2231 14.3454 14.2522 14.4948 14.3152 14.5483C14.387 14.6088 14.5267 14.6172 14.6309 14.6032C14.7044 14.5936 14.776 14.5173 14.8343 14.4572C15.2991 13.9762 15.536 13.3875 15.6065 12.7335C15.6758 12.0909 15.5619 11.9464 14.9157 11.881Z" fill="#D0721C"/>
</svg>
