<svg width="17" height="19" viewBox="0 0 17 19" fill="none" xmlns="http://www.w3.org/2000/svg">
<g clip-path="url(#clip0_7_359)">
<path d="M7.60408 9.08122L0.067421 16.9774C0.152057 17.2773 0.30415 17.5539 0.512075 17.7861C0.719999 18.0182 0.97825 18.1998 1.26709 18.3168C1.55592 18.4338 1.86769 18.4833 2.17857 18.4614C2.48945 18.4395 2.7912 18.3468 3.06076 18.1904L11.5409 13.3606L7.60408 9.08122Z" fill="#EA4335"/>
<path d="M15.2249 7.73905L11.5578 5.63858L7.43005 9.26084L11.5746 13.3493L15.2138 11.2714C15.5362 11.1026 15.8062 10.8487 15.9946 10.5374C16.1831 10.2261 16.2827 9.86909 16.2827 9.50518C16.2827 9.14127 16.1831 8.7843 15.9946 8.47296C15.8062 8.16162 15.5362 7.90779 15.2138 7.73898L15.2249 7.73905Z" fill="#FBBC04"/>
<path d="M0.0674173 1.99387C0.0218889 2.16228 -0.000787707 2.33606 -3.2113e-06 2.51052V16.4607C0.000446348 16.6351 0.023102 16.8087 0.0674173 16.9774L7.86243 9.28342L0.0674173 1.99387Z" fill="#4285F4"/>
<path d="M7.66024 9.48563L11.5578 5.63865L3.08888 0.786414C2.77024 0.599812 2.40784 0.500987 2.03858 0.500004C1.12223 0.498223 0.316622 1.10641 0.067421 1.98828L7.66024 9.48563Z" fill="#34A853"/>
</g>
<defs>
<clipPath id="clip0_7_359">
<rect width="16.2827" height="18" fill="white" transform="translate(0 0.5)"/>
</clipPath>
</defs>
</svg>
