<svg width="18" height="19" viewBox="0 0 18 19" fill="none" xmlns="http://www.w3.org/2000/svg">
<path d="M14.0325 15.125C13.41 16.055 12.75 16.9625 11.745 16.9775C10.74 17 10.4175 16.385 9.2775 16.385C8.13 16.385 7.7775 16.9625 6.825 17C5.8425 17.0375 5.1 16.01 4.47 15.1025C3.1875 13.25 2.205 9.8375 3.525 7.5425C4.1775 6.4025 5.3475 5.6825 6.615 5.66C7.575 5.645 8.49 6.3125 9.0825 6.3125C9.6675 6.3125 10.7775 5.51 11.94 5.63C12.4275 5.6525 13.7925 5.825 14.67 7.115C14.6025 7.16 13.0425 8.075 13.0575 9.9725C13.08 12.2375 15.045 12.995 15.0675 13.0025C15.045 13.055 14.7525 14.0825 14.0325 15.125ZM9.75 3.125C10.2975 2.5025 11.205 2.03 11.955 2C12.0525 2.8775 11.7 3.7625 11.175 4.3925C10.6575 5.03 9.8025 5.525 8.9625 5.4575C8.85 4.595 9.27 3.695 9.75 3.125Z" fill="black"/>
</svg>
