<svg width="18" height="19" viewBox="0 0 18 19" fill="none" xmlns="http://www.w3.org/2000/svg">
<path d="M12.69 3.875C11.3018 3.875 10.2165 4.9205 9.234 6.24875C7.884 4.52975 6.75525 3.875 5.4045 3.875C2.6505 3.875 0.540001 7.46 0.540001 11.2535C0.540001 13.6273 1.68825 15.125 3.612 15.125C4.9965 15.125 5.9925 14.4725 7.76325 11.3773C7.76325 11.3773 8.50125 10.0745 9.00825 9.17675C9.18625 9.46375 9.37375 9.77325 9.57075 10.1053L10.401 11.5017C12.018 14.2077 12.9195 15.125 14.5515 15.125C16.4265 15.125 17.469 13.607 17.469 11.1838C17.469 7.211 15.3113 3.875 12.69 3.875ZM6.4125 10.5395C4.97775 12.7895 4.48125 13.2943 3.6825 13.2943C2.85975 13.2943 2.37075 12.572 2.37075 11.2842C2.37075 8.53025 3.744 5.714 5.38125 5.714C6.26775 5.714 7.00875 6.2255 8.1435 7.85C7.06575 9.503 6.4125 10.5395 6.4125 10.5395ZM11.8312 10.2568L10.8375 8.6C10.5881 8.19257 10.33 7.79048 10.0635 7.394C10.9583 6.01325 11.6955 5.32475 12.5737 5.32475C14.3962 5.32475 15.855 8.00975 15.855 11.3068C15.855 12.5638 15.4433 13.2935 14.5905 13.2935C13.773 13.2935 13.383 12.7535 11.8305 10.256" fill="black"/>
</svg>
