<svg width="18" height="19" viewBox="0 0 18 19" fill="none" xmlns="http://www.w3.org/2000/svg">
<g clip-path="url(#clip0_7_378)">
<path d="M2.7525 5.105C2.7525 5.105 1.365 6.4325 1.29 7.835V8.0975C1.35 9.23 2.205 9.8975 2.205 9.8975C3.5775 11.24 6.9 12.9275 7.68 13.31C7.68 13.31 7.725 13.3325 7.755 13.3025L7.77 13.2725V13.2425C5.64 8.6 2.7525 5.105 2.7525 5.105ZM7.2375 14.45C7.2225 14.39 7.1625 14.39 7.1625 14.39L1.6275 14.585C2.2275 15.6575 3.24 16.4825 4.2975 16.235C5.0175 16.0475 6.6675 14.9 7.2075 14.51C7.2525 14.4725 7.2375 14.4425 7.2375 14.4425V14.45ZM7.2975 13.865C4.8675 12.2225 0.1575 9.71 0.1575 9.71C0.045 10.055 0.0075 10.385 0 10.685V10.7375C0 11.54 0.3 12.1025 0.3 12.1025C0.9 13.37 2.055 13.7525 2.055 13.7525C2.58 13.9775 3.105 13.985 3.105 13.985C3.195 14 6.405 13.985 7.26 13.985C7.2975 13.985 7.32 13.9475 7.32 13.9475V13.9025C7.32 13.88 7.2975 13.865 7.2975 13.865ZM6.795 2.8925C6.26324 3.02827 5.78905 3.33102 5.44211 3.75626C5.09517 4.18151 4.89377 4.70681 4.8675 5.255V5.5625C4.89 6.0125 4.9875 6.35 4.9875 6.35C5.4825 8.525 7.8825 12.0875 8.4 12.8375C8.4375 12.875 8.475 12.86 8.475 12.86C8.4894 12.8538 8.50149 12.8432 8.50956 12.8297C8.51764 12.8163 8.52129 12.8006 8.52 12.785C9.315 4.835 7.6875 2.72 7.6875 2.72C7.4475 2.735 6.795 2.8925 6.795 2.8925ZM13.0192 4.595C13.0192 4.595 12.6517 3.245 11.1892 2.885C11.1892 2.885 10.7617 2.78 10.3117 2.72C10.3117 2.72 8.67675 4.8275 9.47175 12.7925C9.47925 12.845 9.51675 12.8525 9.51675 12.8525C9.56925 12.875 9.59175 12.83 9.59175 12.83C10.1317 12.0575 12.5167 8.51 13.0042 6.35C13.0042 6.35 13.2742 5.3 13.0192 4.595ZM10.8292 14.3975C10.8292 14.3975 10.7767 14.3975 10.7617 14.435C10.7617 14.435 10.7542 14.4875 10.7842 14.51C11.3092 14.8925 12.9217 16.01 13.6942 16.235C13.6942 16.235 13.8142 16.2725 14.0167 16.28H14.1217C14.6392 16.265 15.5467 16.0025 16.3717 14.585L10.8217 14.3975H10.8292ZM16.7017 8.09C16.8067 6.545 15.2467 5.1125 15.2467 5.105C15.2467 5.105 12.3592 8.6 10.2442 13.205C10.2442 13.205 10.2217 13.265 10.2592 13.3025L10.2892 13.31H10.3342C11.1292 12.9125 14.4292 11.2325 15.7942 9.905C15.7942 9.905 16.6567 9.2075 16.7017 8.09ZM17.8417 9.695C17.8417 9.695 13.1317 12.2225 10.7017 13.8575C10.7017 13.8575 10.6642 13.8875 10.6792 13.94C10.6792 13.94 10.7017 13.985 10.7317 13.985C11.6017 13.985 14.9017 13.985 14.9842 13.97C14.9842 13.97 15.4117 13.955 15.9367 13.7525C15.9367 13.7525 17.1067 13.3775 17.7142 12.05C17.7142 12.05 18.2617 10.9625 17.8417 9.695Z" fill="#DF7373"/>
</g>
<defs>
<clipPath id="clip0_7_378">
<rect width="18" height="18" fill="white" transform="translate(0 0.5)"/>
</clipPath>
</defs>
</svg>
