<svg width="18" height="19" viewBox="0 0 18 19" fill="none" xmlns="http://www.w3.org/2000/svg">
<path d="M9 5.75C9.8575 5.75 10.6763 5.776 11.4563 5.828C12.2193 5.8785 12.9188 5.9835 13.5548 6.143C14.1648 6.295 14.6945 6.52225 15.144 6.82475C15.5714 7.11304 15.915 7.50917 16.14 7.973C16.3845 8.46575 16.5 9.083 16.5 9.8225C16.501 10.5775 16.3575 11.2543 16.0695 11.8528C15.7885 12.4378 15.4043 12.8998 14.9168 13.2388C14.4415 13.5686 13.8751 13.7416 13.2968 13.7338C12.9148 13.7348 12.5693 13.6823 12.2603 13.5763C11.9538 13.4712 11.6596 13.3334 11.3828 13.1653C11.1158 13.0002 10.8544 12.8263 10.599 12.644C10.3594 12.4702 10.1086 12.3124 9.84825 12.1715C9.58869 12.0275 9.29755 11.95 9.00075 11.9458C8.721 11.9458 8.43825 12.0185 8.15175 12.1708C7.91425 12.2983 7.66425 12.4558 7.40175 12.6433C7.16075 12.8158 6.899 12.9895 6.6165 13.1645C6.3407 13.3337 6.04688 13.4715 5.7405 13.5755C5.4305 13.6815 5.086 13.734 4.707 13.733C4.12742 13.7419 3.5596 13.569 3.08325 13.2388C2.59525 12.8988 2.211 12.4368 1.9305 11.8528C1.6425 11.2548 1.499 10.5775 1.5 9.821C1.497 9.086 1.6125 8.4695 1.85775 7.976C2.08318 7.51198 2.42731 7.11584 2.85525 6.82775C3.30525 6.52575 3.83525 6.299 4.44525 6.1475C5.1345 5.97989 5.83725 5.87373 6.54525 5.83025C7.32525 5.77675 8.1435 5.75 9 5.75Z" stroke="black" stroke-width="2" stroke-linecap="round" stroke-linejoin="round"/>
</svg>
